<svg width="65" height="13" viewBox="0 0 65 13" fill="none" xmlns="http://www.w3.org/2000/svg">
<path d="M8.38281 9.89062V12H2.63281V9.89062H8.38281ZM3.60938 0.625V12H0.867188V0.625H3.60938ZM26.6641 6.08594V6.54688C26.6641 7.41667 26.5417 8.19792 26.2969 8.89062C26.0573 9.57812 25.7161 10.1667 25.2734 10.6562C24.8307 11.1406 24.3073 11.513 23.7031 11.7734C23.099 12.0286 22.4323 12.1562 21.7031 12.1562C20.9688 12.1562 20.2969 12.0286 19.6875 11.7734C19.0833 11.513 18.5573 11.1406 18.1094 10.6562C17.6667 10.1667 17.3229 9.57812 17.0781 8.89062C16.8385 8.19792 16.7188 7.41667 16.7188 6.54688V6.08594C16.7188 5.21615 16.8385 4.4349 17.0781 3.74219C17.3229 3.04948 17.6641 2.46094 18.1016 1.97656C18.5443 1.48698 19.0677 1.11458 19.6719 0.859375C20.2812 0.598958 20.9531 0.46875 21.6875 0.46875C22.4167 0.46875 23.0833 0.598958 23.6875 0.859375C24.2969 1.11458 24.8229 1.48698 25.2656 1.97656C25.7083 2.46094 26.0521 3.04948 26.2969 3.74219C26.5417 4.4349 26.6641 5.21615 26.6641 6.08594ZM23.8828 6.54688V6.07031C23.8828 5.50781 23.8333 5.01302 23.7344 4.58594C23.6406 4.15365 23.5 3.79167 23.3125 3.5C23.125 3.20833 22.8932 2.98958 22.6172 2.84375C22.3464 2.69271 22.0365 2.61719 21.6875 2.61719C21.3229 2.61719 21.0052 2.69271 20.7344 2.84375C20.4635 2.98958 20.237 3.20833 20.0547 3.5C19.8724 3.79167 19.7344 4.15365 19.6406 4.58594C19.5521 5.01302 19.5078 5.50781 19.5078 6.07031V6.54688C19.5078 7.10417 19.5521 7.59896 19.6406 8.03125C19.7344 8.45833 19.8724 8.82031 20.0547 9.11719C20.2422 9.41406 20.4714 9.63802 20.7422 9.78906C21.0182 9.9401 21.3385 10.0156 21.7031 10.0156C22.0521 10.0156 22.362 9.9401 22.6328 9.78906C22.9036 9.63802 23.1302 9.41406 23.3125 9.11719C23.5 8.82031 23.6406 8.45833 23.7344 8.03125C23.8333 7.59896 23.8828 7.10417 23.8828 6.54688ZM45.3906 5.92188V10.5938C45.1979 10.8073 44.901 11.0365 44.5 11.2812C44.1042 11.5208 43.6042 11.7266 43 11.8984C42.3958 12.0703 41.6849 12.1562 40.8672 12.1562C40.112 12.1562 39.4271 12.0365 38.8125 11.7969C38.1979 11.5521 37.6693 11.1953 37.2266 10.7266C36.7891 10.2526 36.4505 9.67448 36.2109 8.99219C35.9766 8.30469 35.8594 7.51823 35.8594 6.63281V6C35.8594 5.11458 35.9792 4.32812 36.2188 3.64062C36.4583 2.95312 36.7943 2.375 37.2266 1.90625C37.6641 1.43229 38.1771 1.07292 38.7656 0.828125C39.3594 0.583333 40.0104 0.460938 40.7188 0.460938C41.7656 0.460938 42.6172 0.627604 43.2734 0.960938C43.9297 1.28906 44.4271 1.74479 44.7656 2.32812C45.1042 2.90625 45.3099 3.57552 45.3828 4.33594H42.75C42.6979 3.96094 42.599 3.64323 42.4531 3.38281C42.3125 3.11719 42.1094 2.91667 41.8438 2.78125C41.5781 2.64062 41.2344 2.57031 40.8125 2.57031C40.4844 2.57031 40.1849 2.64062 39.9141 2.78125C39.6484 2.92188 39.4219 3.13542 39.2344 3.42188C39.0469 3.70312 38.901 4.05729 38.7969 4.48438C38.6979 4.91146 38.6484 5.41146 38.6484 5.98438V6.63281C38.6484 7.20052 38.6953 7.69792 38.7891 8.125C38.888 8.55208 39.0339 8.90885 39.2266 9.19531C39.4245 9.47656 39.6745 9.6901 39.9766 9.83594C40.2839 9.97656 40.6458 10.0469 41.0625 10.0469C41.3542 10.0469 41.6042 10.0234 41.8125 9.97656C42.0208 9.92448 42.1927 9.86198 42.3281 9.78906C42.4688 9.71094 42.5755 9.63802 42.6484 9.57031V7.80469H40.7422V5.92188H45.3906ZM64.6172 6.08594V6.54688C64.6172 7.41667 64.4948 8.19792 64.25 8.89062C64.0104 9.57812 63.6693 10.1667 63.2266 10.6562C62.7839 11.1406 62.2604 11.513 61.6562 11.7734C61.0521 12.0286 60.3854 12.1562 59.6562 12.1562C58.9219 12.1562 58.25 12.0286 57.6406 11.7734C57.0365 11.513 56.5104 11.1406 56.0625 10.6562C55.6198 10.1667 55.276 9.57812 55.0312 8.89062C54.7917 8.19792 54.6719 7.41667 54.6719 6.54688V6.08594C54.6719 5.21615 54.7917 4.4349 55.0312 3.74219C55.276 3.04948 55.6172 2.46094 56.0547 1.97656C56.4974 1.48698 57.0208 1.11458 57.625 0.859375C58.2344 0.598958 58.9062 0.46875 59.6406 0.46875C60.3698 0.46875 61.0365 0.598958 61.6406 0.859375C62.25 1.11458 62.776 1.48698 63.2188 1.97656C63.6615 2.46094 64.0052 3.04948 64.25 3.74219C64.4948 4.4349 64.6172 5.21615 64.6172 6.08594ZM61.8359 6.54688V6.07031C61.8359 5.50781 61.7865 5.01302 61.6875 4.58594C61.5938 4.15365 61.4531 3.79167 61.2656 3.5C61.0781 3.20833 60.8464 2.98958 60.5703 2.84375C60.2995 2.69271 59.9896 2.61719 59.6406 2.61719C59.276 2.61719 58.9583 2.69271 58.6875 2.84375C58.4167 2.98958 58.1901 3.20833 58.0078 3.5C57.8255 3.79167 57.6875 4.15365 57.5938 4.58594C57.5052 5.01302 57.4609 5.50781 57.4609 6.07031V6.54688C57.4609 7.10417 57.5052 7.59896 57.5938 8.03125C57.6875 8.45833 57.8255 8.82031 58.0078 9.11719C58.1953 9.41406 58.4245 9.63802 58.6953 9.78906C58.9714 9.9401 59.2917 10.0156 59.6562 10.0156C60.0052 10.0156 60.3151 9.9401 60.5859 9.78906C60.8568 9.63802 61.0833 9.41406 61.2656 9.11719C61.4531 8.82031 61.5938 8.45833 61.6875 8.03125C61.7865 7.59896 61.8359 7.10417 61.8359 6.54688Z" fill="#D4DDE1"/>
</svg>
